<!-- Copyright 2019 NXP
  SPDX-License-Identifier: Apache-2.0
-->

<?xml version="1.0" encoding="UTF-8" standalone="no"?>
<svg width="199px" height="73px" viewBox="0 0 199 73" version="1.1" xmlns="http://www.w3.org/2000/svg" xmlns:xlink="http://www.w3.org/1999/xlink">
    <!-- Generator: Sketch 3.8.1 (29687) - http://www.bohemiancoding.com/sketch -->
    <title>nxp-logo</title>
    <desc>Created with Sketch.</desc>
    <defs></defs>
    <g id="Page-1" stroke="none" stroke-width="1" fill="none" fill-rule="evenodd">
        <g id="nxp-logo">
            <polyline id="Fill-1" fill="#7BB1DB" points="119.485106 0.866653846 115.458156 0.866653846 100.607092 24.7629615 85.7546099 0.866653846 81.7148936 0.866653846 81.7163121 72.7576538 85.7546099 72.7576538 100.607092 48.8613462 115.458156 72.7576538 119.52766 72.7562308 119.485106 72.6978846 119.485106 0.866653846"></polyline>
            <polyline id="Fill-2" fill="#958437" points="81.7148936 0.866653846 59.6893617 0.866653846 81.6879433 36.8107308 59.6893617 72.7576538 81.7163121 72.7576538 81.7148936 0.866653846"></polyline>
            <polyline id="Fill-3" fill="#739833" points="141.524823 0.866653846 119.485106 0.866653846 119.485106 72.6978846 119.52766 72.7562308 141.521986 72.7533846 119.526241 36.8107308 141.524823 0.866653846"></polyline>
            <path d="M172.924823,0.866653846 L141.524823,0.866653846 L119.526241,36.8107308 L141.521986,72.7533846 L141.531915,72.7533846 L141.521986,56.8732692 L178.687943,56.8732692 C194.29078,56.8732692 198.961702,44.5864231 198.961702,33.8863077 L198.961702,25.4389231 C198.961702,11.3675385 193.892199,0.866653846 172.924823,0.866653846 L172.924823,0.866653846 Z M178.41844,29.8718077 C178.41844,34.1339231 176.431206,39.0378462 171.262411,39.0378462 L141.551773,39.0378462 L141.551773,18.7006538 L169.374468,18.7006538 C176.032624,18.7006538 178.41844,21.4756538 178.41844,26.3311923 L178.41844,29.8718077 L178.41844,29.8718077 Z" id="Fill-4" fill="#C9D200"></path>
            <polyline id="Fill-5" fill="#FFB500" points="81.6879433 36.8107308 59.6893617 0.866653846 59.6808511 0.865230769 59.6780142 44.3089231 22.4056738 0.865230769 0.380141844 0.865230769 0.380141844 72.7576538 22.4255319 72.7533846 22.4170213 29.3139615 59.6893617 72.7576538 81.6879433 36.8107308"></polyline>
        </g>
    </g>
</svg>