<!-- Copyright 2019 NXP
  SPDX-License-Identifier: Apache-2.0
-->
<svg width="471" height="73" xmlns="http://www.w3.org/2000/svg">
 <!-- Generator: Sketch 3.8.1 (29687) - http://www.bohemiancoding.com/sketch -->
 <title>nxp-logo</title>
 <desc>Created with Sketch.</desc>

 <g>
  <title>background</title>
  <rect fill="none" id="canvas_background" height="75" width="473" y="-1" x="-1"/>
 </g>
 <g>
  <title>Layer 1</title>
  <g fill-rule="evenodd" fill="none" id="Page-1">
   <g id="nxp-logo">
    <polyline points="119.485106 0.866653846 115.458156 0.866653846 100.607092 24.7629615 85.7546099 0.866653846 81.7148936 0.866653846 81.7163121 72.7576538 85.7546099 72.7576538 100.607092 48.8613462 115.458156 72.7576538 119.52766 72.7562308 119.485106 72.6978846 119.485106 0.866653846" fill="#7BB1DB" id="Fill-1"/>
    <polyline points="81.7148936 0.866653846 59.6893617 0.866653846 81.6879433 36.8107308 59.6893617 72.7576538 81.7163121 72.7576538 81.7148936 0.866653846" fill="#958437" id="Fill-2"/>
    <polyline points="141.524823 0.866653846 119.485106 0.866653846 119.485106 72.6978846 119.52766 72.7562308 141.521986 72.7533846 119.526241 36.8107308 141.524823 0.866653846" fill="#739833" id="Fill-3"/>
    <path fill="#C9D200" id="Fill-4" d="m172.92482,0.86665l-31.4,0l-21.99858,35.94408l21.99575,35.94265l0.00992,0l-0.00992,-15.88011l37.16595,0c15.60284,0 20.27376,-12.28685 20.27376,-22.98696l0,-8.44739c0,-14.07138 -5.0695,-24.57227 -26.03688,-24.57227l0,0zm5.49362,29.00516c0,4.26211 -1.98723,9.16604 -7.15603,9.16604l-29.71064,0l0,-20.3372l27.8227,0c6.65815,0 9.04397,2.775 9.04397,7.63054l0,3.54062l0,0z"/>
    <polyline points="81.6879433 36.8107308 59.6893617 0.866653846 59.6808511 0.865230769 59.6780142 44.3089231 22.4056738 0.865230769 0.380141844 0.865230769 0.380141844 72.7576538 22.4255319 72.7533846 22.4170213 29.3139615 59.6893617 72.7576538 81.6879433 36.8107308" fill="#FFB500" id="Fill-5"/>
   </g>
  </g>
  <text font-weight="bold" stroke="#000" transform="matrix(2.6655428409576416,0,0,2.334220843863065,-359.00255454704165,-87.20589682055882) " xml:space="preserve" text-anchor="start" font-family="Helvetica, Arial, sans-serif" font-size="47" id="svg_1" y="68.469514" x="206.553682" stroke-width="0" fill="#ffffff">lorer</text>
 </g>
</svg>